<svg version="1.1" xmlns="http://www.w3.org/2000/svg" xmlns:xlink="http://www.w3.org/1999/xlink" x="0px" y="0px" style="enable-background:new 0 0 595.28 841.89;" xml:space="preserve" viewBox="161.48 246.6 278.63 291.63">
<style type="text/css">
	.st0{fill:#57AA4B;stroke:#000000;stroke-miterlimit:10;}
	.st1{fill:none;stroke:#000000;stroke-miterlimit:10;}
	.st2{fill:#FF6D00;stroke:#000000;stroke-miterlimit:10;}
	.st3{fill:#FFCE00;stroke:#000000;stroke-miterlimit:10;}
</style>
<g id="green_x5F_part">
	<path class="st0" d="M434.58,436.19c0.02-0.05,0.02-0.1,0-0.16c-1.32-3.46-48.83-127.42-96.85-166.28   c-9.07-6.81-39.24-32.1-96.97-6.24c-0.17,0.08-0.19,0.31-0.04,0.42c19.83,14.3,30.88,26.93,40.55,41.06   c13.14,19.2,31.57,72.57,14.59,125.43c-16.24,47.34-46.1,89.37-48.62,92.86c-0.09,0.13-0.05,0.3,0.1,0.35   c4.89,1.84,51.73,21.78,110.97-4.07C397.86,501.87,425.32,464.88,434.58,436.19z"/>
</g>
<g id="orange_x5F_part">
	<path class="st2" d="M281.27,304.99c-9.73-14.21-20.84-26.91-40.89-41.31c0,0-33,18.57-40.96,41.87c0,0.15,0.01,0.31,0.01,0.46   c17.47,16.59,28.36,40.04,28.36,66.04c0,15.48-7.21,27.68-10.08,41.87c-0.27,1.33,1.02,2.2,1.14,2.26   c10.36,5.24,12.22,11.78,12.41,22.39s-16.1,65.52-6.05,74.61c11.07,6.44,21.87,10.34,21.87,10.34s31.83-43.65,48.79-93.1   C312.85,377.56,294.42,324.19,281.27,304.99z"/>
	<circle cx="260.43" cy="326.34" r="11.12"/>
	<path class="st3" d="M218.85,416.18c-0.12-0.06-1.41-0.93-1.14-2.26c2.87-14.18,10.08-26.38,10.08-41.87   c0-26-10.89-49.45-28.36-66.04c0-0.15-0.01-0.31-0.01-0.46c0,0-41.73,44.17-30.51,81.93c9.75,32.78,20.79,37.44,20.79,37.44   s-0.39-34.55,1.37-32.15C200.56,405.61,218.85,416.18,218.85,416.18z"/>
</g>
<g id="curve">
	<path class="st1" d="M191.02,392.67c0,0,3.15-0.78,6.69-2.46c7.07-3.35,26.46-18.9,29.24-31.03"/>
</g>
</svg>